<svg t="1600419843991" class="icon" viewBox="0 0 1024 1024" version="1.1" xmlns="http://www.w3.org/2000/svg" p-id="15076" width="64" height="64"><path d="M504.32 381.75m-255.5 0a255.5 255.5 0 1 0 511 0 255.5 255.5 0 1 0-511 0Z" fill="#33a3f4" p-id="15077"></path><path d="M459.32 410.75m-298.5 0a298.5 298.5 0 1 0 597 0 298.5 298.5 0 1 0-597 0Z" fill="#33a3f4" p-id="15078"></path><path d="M658.572307 685.846663m10.224764-10.224764l0.007071-0.007071q10.224764-10.224764 20.449528 0l224.258916 224.258916q10.224764 10.224764 0 20.449528l-0.007071 0.007071q-10.224764 10.224764-20.449528 0l-224.258916-224.258915q-10.224764-10.224764 0-20.449529Z" fill="#33a3f4" p-id="15079"></path><path d="M294 615.81a14.69 14.69 0 0 1-6.74-1.64c-1.44-0.74-35.63-18.76-70.16-70-30.67-45.51-32.28-84.56-32.33-86.2a14.68 14.68 0 0 1 29.35-1c0 0.61 1.8 32.92 27.34 70.82 30 44.47 59 60.21 59.33 60.36a14.68 14.68 0 0 1-6.79 27.66z" fill="#33a3f4" p-id="15080"></path><path d="M788.42 443.66c0-188.46-153.3-341.78-341.75-341.78S104.92 255.2 104.92 443.66s153.31 341.77 341.75 341.77c8.67 0 14.66-0.61 23.17-1.25v-0.08a14.65 14.65 0 0 0-0.39-29.3c-0.36 0-0.67 0.18-1 0.21v-0.2c-5.73 0.31-15.94 1.59-21.74 1.59-172.45 0-312.75-140.29-312.75-312.74s140.3-312.75 312.75-312.75 312.75 140.3 312.75 312.75c0 125.51-74.49 233.69-181.44 283.45l0.06 0.19a14.51 14.51 0 0 0-10.45 13.83 14.69 14.69 0 0 0 14.69 14.69 14.3 14.3 0 0 0 4-0.81l0.08 0.26c0.31-0.15 0.61-0.32 0.92-0.46a14.23 14.23 0 0 0 1.92-0.94c117.33-54.16 199.18-172.66 199.18-310.21z" fill="#33a3f4" p-id="15081"></path></svg>